<?xml version="1.0" encoding="UTF-8" standalone="no"?>
<!DOCTYPE svg PUBLIC "-//W3C//DTD SVG 1.1//EN" "http://www.w3.org/Graphics/SVG/1.1/DTD/svg11.dtd">
<svg width="100%" height="100%" viewBox="0 0 2048 512" version="1.1" xmlns="http://www.w3.org/2000/svg" xmlns:xlink="http://www.w3.org/1999/xlink" xml:space="preserve" xmlns:serif="http://www.serif.com/" style="fill-rule:evenodd;clip-rule:evenodd;stroke-linejoin:round;stroke-miterlimit:2;">
    <g transform="matrix(5.149361,0,0,5.149361,-1007.261926,-124.140683)">
        <path d="M204.887,58.291L213.757,58.291L213.757,89.333L204.887,89.333L204.887,58.291ZM215.974,58.291L215.974,78.246L227.061,78.246L227.061,89.333L235.93,89.333L235.93,69.377L224.843,69.377L224.843,58.291L215.974,58.291ZM227.061,58.291L227.061,67.16L235.93,67.16L235.93,58.291L227.061,58.291ZM215.974,80.464L215.974,89.333L224.843,89.333L224.843,80.464L215.974,80.464ZM238.147,58.291L238.147,89.333L247.017,89.333L247.017,67.16L258.103,67.16L258.103,58.291L238.147,58.291ZM258.103,69.377L249.234,69.377L249.234,89.333L258.103,89.333L258.103,69.377Z" style="fill:white;fill-rule:nonzero;"/>
        <rect x="264.755" y="58.291" width="2.217" height="31.043" style="fill:white;fill-rule:nonzero;"/>
        <path d="M273.624,58.313L273.624,89.355L304.667,89.355L304.667,87.138L275.842,87.138L275.842,58.313L273.624,58.313Z" style="fill:white;fill-rule:nonzero;"/>
        <path d="M304.667,58.291L304.667,89.333L306.884,89.333L306.884,73.812L333.492,73.812L333.492,89.333L335.71,89.333L335.71,58.291L333.492,58.291L333.492,71.594L306.884,71.594L306.884,58.291L304.667,58.291Z" style="fill:white;fill-rule:nonzero;"/>
        <path d="M335.71,58.291L335.71,60.508L351.231,60.508L351.231,89.333L353.448,89.333L353.448,60.508L368.969,60.508L368.969,58.291L335.71,58.291Z" style="fill:white;fill-rule:nonzero;"/>
        <path d="M413.316,58.291L382.273,58.291L382.273,73.812L411.099,73.812L411.099,87.116L382.273,87.116L382.273,89.333L413.316,89.333L413.316,71.594L384.491,71.594L384.491,60.508L413.316,60.508L413.316,58.291Z" style="fill:white;fill-rule:nonzero;"/>
        <path d="M413.316,58.291L413.316,60.508L428.837,60.508L428.837,89.333L431.055,89.333L431.055,60.508L446.576,60.508L446.576,58.291L413.316,58.291Z" style="fill:white;fill-rule:nonzero;"/>
        <path d="M446.576,58.291L446.576,89.333L477.618,89.333L477.618,58.291L475.401,58.291L475.401,87.116L448.793,87.116L448.793,58.291L446.576,58.291Z" style="fill:white;fill-rule:nonzero;"/>
        <path d="M482.053,58.291L482.053,89.333L504.226,89.333L513.096,80.464L513.096,67.16L504.226,58.291L482.053,58.291ZM502.896,60.508L510.878,68.49L510.878,79.133L502.896,87.116L484.27,87.116L484.27,60.508L502.896,60.508Z" style="fill:white;fill-rule:nonzero;"/>
        <path d="M548.573,58.291L517.53,58.291L517.53,60.508L531.943,60.508L531.943,87.116L517.53,87.116L517.53,89.333L548.573,89.333L548.573,87.116L534.16,87.116L534.16,60.508L548.573,60.508L548.573,58.291Z" style="fill:white;fill-rule:nonzero;"/>
        <path d="M553.008,58.291L553.008,89.333L584.05,89.333L584.05,58.291L553.008,58.291ZM581.833,60.508L581.833,87.116L555.225,87.116L555.225,60.508L581.833,60.508Z" style="fill:white;fill-rule:nonzero;"/>
    </g>
</svg>
